<?xml version="1.0" encoding="UTF-8"?>
<svg width="512px" height="496px" viewBox="0 0 512 496" version="1.1" xmlns="http://www.w3.org/2000/svg" xmlns:xlink="http://www.w3.org/1999/xlink">
    <!-- Generator: Sketch 41 (35326) - http://www.bohemiancoding.com/sketch -->
    <title>draw</title>
    <desc>Created with Sketch.</desc>
    <defs></defs>
    <g id="Page-1" stroke="none" stroke-width="1" fill="none" fill-rule="evenodd">
        <g id="draw" fill="#FFFFFF">
            <g id="Layer_1">
                <path d="M508.135,110.921 L443.185,60.887 C441.1,59.282 438.456,58.569 435.856,58.909 C433.247,59.248 430.88,60.608 429.275,62.691 L398.026,103.256 L398.026,10.811 C398.026,5.334 393.587,0.893 388.108,0.893 L118.129,0.893 C115.499,0.893 112.977,1.938 111.115,3.798 L2.904,112.009 C1.045,113.867 0,116.39 0,119.021 L0,485.19 C0,490.667 4.439,495.108 9.918,495.108 L388.107,495.108 C393.586,495.108 398.025,490.667 398.025,485.19 L398.025,270.111 L509.938,124.83 C513.281,120.491 512.473,114.264 508.135,110.921 Z M438.936,82.654 L455.699,95.566 L306.403,289.372 L289.64,276.46 L438.936,82.654 Z M318.081,323.406 L287.116,330.659 L286.227,298.869 L318.081,323.406 Z M108.211,34.754 L108.211,109.104 L33.861,109.104 L108.211,34.754 Z M19.836,475.273 L19.836,128.94 L118.129,128.94 C123.608,128.94 128.047,124.499 128.047,119.022 L128.047,20.729 L378.189,20.729 L378.189,129.007 L267.874,272.211 C266.479,274.021 265.753,276.258 265.816,278.541 L267.626,343.366 C267.709,346.344 269.127,349.128 271.487,350.946 C273.238,352.296 275.372,353.008 277.54,353.008 C278.294,353.008 279.054,352.922 279.803,352.746 L342.944,337.954 C345.168,337.433 347.145,336.16 348.538,334.35 L378.187,295.861 L378.187,475.273 L19.836,475.273 Z M338.879,314.388 L322.116,301.476 L471.411,107.67 L488.172,120.582 L338.879,314.388 Z" id="Shape"></path>
                <path d="M192.703,192.283 C192.703,163.578 169.351,140.226 140.646,140.226 C111.942,140.226 88.59,163.578 88.59,192.283 C88.59,218.293 107.766,239.909 132.722,243.737 L140.219,321.205 C140.715,326.332 145.031,330.168 150.079,330.168 C150.398,330.168 150.722,330.152 151.046,330.122 C156.498,329.594 160.491,324.747 159.962,319.294 L152.574,242.945 C175.547,237.538 192.703,216.884 192.703,192.283 Z M140.646,224.503 C122.88,224.503 108.426,210.049 108.426,192.283 C108.426,174.515 122.881,160.062 140.646,160.062 C158.414,160.062 172.867,174.516 172.867,192.283 C172.868,210.05 158.413,224.503 140.646,224.503 Z" id="Shape"></path>
                <path d="M116.37,262.726 L63.475,262.726 C57.996,262.726 53.557,267.167 53.557,272.644 C53.557,278.121 57.996,282.562 63.475,282.562 L116.37,282.562 C121.849,282.562 126.288,278.121 126.288,272.644 C126.288,267.166 121.849,262.726 116.37,262.726 Z" id="Shape"></path>
                <path d="M224.121,214.981 C220.027,211.342 213.757,211.711 210.12,215.805 L167.804,263.411 C164.165,267.505 164.534,273.773 168.628,277.412 C170.518,279.091 172.869,279.918 175.212,279.918 C177.948,279.917 180.671,278.793 182.629,276.588 L224.945,228.982 C228.584,224.888 228.215,218.62 224.121,214.981 Z" id="Shape"></path>
                <path d="M155.05,344.987 C149.726,343.71 144.369,346.992 143.092,352.316 L127.223,418.435 C125.944,423.762 129.226,429.116 134.553,430.393 C135.331,430.579 136.109,430.669 136.875,430.669 C141.357,430.669 145.42,427.612 146.511,423.064 L162.38,356.945 C163.658,351.619 160.376,346.265 155.05,344.987 Z" id="Shape"></path>
                <path d="M255.41,361.829 L184.001,322.157 C179.209,319.495 173.175,321.222 170.514,326.01 C167.855,330.798 169.579,336.836 174.367,339.496 L245.776,379.168 C247.302,380.016 248.954,380.418 250.584,380.418 C254.07,380.418 257.45,378.577 259.263,375.315 C261.921,370.528 260.198,364.49 255.41,361.829 Z" id="Shape"></path>
            </g>
        </g>
    </g>
</svg>