<?xml version="1.0" encoding="UTF-8"?>
<svg width="306px" height="320px" viewBox="0 0 306 320" version="1.1" xmlns="http://www.w3.org/2000/svg" xmlns:xlink="http://www.w3.org/1999/xlink">
    <!-- Generator: Sketch 41 (35326) - http://www.bohemiancoding.com/sketch -->
    <title>webcam</title>
    <desc>Created with Sketch.</desc>
    <defs></defs>
    <g id="Page-1" stroke="none" stroke-width="1" fill="none" fill-rule="evenodd">
        <g id="webcam" fill="#FFFFFF">
            <g id="Group">
                <path d="M150.859,212.062 C194.278,212.062 229.601,176.086 229.601,131.866 C229.601,87.646 194.278,51.671 150.859,51.671 C107.439,51.671 72.115,87.647 72.115,131.866 C72.115,176.086 107.439,212.062 150.859,212.062 Z M150.859,71.67 C183.25,71.67 209.601,98.674 209.601,131.865 C209.601,165.057 183.249,192.061 150.859,192.061 C118.467,192.061 92.115,165.057 92.115,131.865 C92.115,98.674 118.468,71.67 150.859,71.67 Z" id="Shape"></path>
                <path d="M125.249,131.865 C125.249,117.329 136.737,105.504 150.859,105.504 C156.381,105.504 160.859,101.026 160.859,95.504 C160.859,89.982 156.381,85.504 150.859,85.504 C125.71,85.504 105.249,106.302 105.249,131.865 C105.249,137.387 109.727,141.865 115.249,141.865 C120.771,141.865 125.249,137.388 125.249,131.865 Z" id="Shape"></path>
                <path d="M221.095,270.354 L84.905,270.354 C79.383,270.354 74.905,274.832 74.905,280.354 C74.905,285.876 79.383,290.354 84.905,290.354 L221.094,290.354 C226.616,290.354 231.094,285.876 231.094,280.354 C231.094,274.832 226.617,270.354 221.095,270.354 Z" id="Shape"></path>
                <path d="M301.883,284.413 L276.395,239.826 C271.134,230.622 261.354,222.7 250.707,218.18 C270.407,195.033 282.344,164.844 282.344,131.865 C282.344,59.154 224.32,0 153,0 C81.68,0 23.657,59.154 23.657,131.865 C23.657,164.844 35.594,195.033 55.293,218.18 C44.646,222.699 34.866,230.621 29.605,239.826 L4.117,284.413 C-0.825,293.058 -1.321,302.047 2.757,309.076 C6.785,316.019 14.672,320 24.395,320 L281.606,320 C291.329,320 299.215,316.019 303.244,309.076 C307.32,302.047 306.825,293.058 301.883,284.413 Z M153,20 C213.292,20 262.344,70.183 262.344,131.865 C262.344,193.549 213.292,243.731 153,243.731 C92.708,243.731 43.657,193.549 43.657,131.865 C43.657,70.183 92.708,20 153,20 Z M285.953,299.024 C285.788,299.23 284.566,300 281.605,300 L24.395,300 C21.434,300 20.212,299.23 20.063,299.05 C19.954,298.798 19.865,297.166 21.481,294.339 L46.969,249.752 C51.325,242.131 62.631,235.15 71.603,234.264 C93.848,252.678 122.179,263.732 153,263.732 C183.821,263.732 212.152,252.678 234.397,234.264 C243.369,235.15 254.675,242.131 259.031,249.752 L284.519,294.339 C286.136,297.166 286.047,298.798 285.953,299.024 Z" id="Shape"></path>
            </g>
        </g>
    </g>
</svg>